<?xml version="1.0" standalone="no"?>
<!DOCTYPE svg PUBLIC "-//W3C//DTD SVG 20010904//EN"
 "http://www.w3.org/TR/2001/REC-SVG-20010904/DTD/svg10.dtd">
<svg version="1.0" xmlns="http://www.w3.org/2000/svg"
 width="512.000000pt" height="512.000000pt" viewBox="0 0 512.000000 512.000000"
 preserveAspectRatio="xMidYMid meet">

<g transform="translate(0.000000,512.000000) scale(0.100000,-0.100000)"
fill="#000000" stroke="none">
<path d="M2450 4464 c-292 -24 -511 -84 -751 -204 -556 -279 -944 -825 -1030
-1450 -15 -110 -15 -392 0 -500 77 -552 383 -1038 849 -1347 156 -103 499
-253 521 -227 8 9 131 509 131 532 0 9 -40 12 -166 12 l-166 0 5 28 c3 15 92
422 196 905 105 482 191 880 191 882 0 3 -175 5 -390 5 -307 0 -390 3 -390 13
0 12 125 564 136 600 5 16 70 17 1180 17 l1174 0 -6 -40 -7 -40 97 0 c112 0
111 -9 18 108 -283 360 -736 619 -1198 686 -104 16 -318 26 -394 20z"/>
</g>
</svg>
