<?xml version="1.0" encoding="UTF-8"?>
<svg version="1.1" xmlns="http://www.w3.org/2000/svg" width="1200" height="600">
<path d="M0 0 C396 0 792 0 1200 0 C1200 198 1200 396 1200 600 C804 600 408 600 0 600 C0 402 0 204 0 0 Z " fill="#F9F9F9" transform="translate(0,0)"/>
<path d="M0 0 C0.72516815 0.00149048 1.4503363 0.00298096 2.19747925 0.0045166 C13.33797255 0.04562713 23.94728794 0.75402499 34.8125 3.3125 C36.12069934 3.58393911 37.42929854 3.85345788 38.73828125 4.12109375 C74.75057715 11.88635637 111.40757564 35.25244449 131.8125 66.3125 C131.8125 66.9725 131.8125 67.6325 131.8125 68.3125 C126.5325 68.3125 121.2525 68.3125 115.8125 68.3125 C116.1425 66.0025 116.4725 63.6925 116.8125 61.3125 C52.1325 61.3125 -12.5475 61.3125 -79.1875 61.3125 C-79.8475 65.2725 -80.5075 69.2325 -81.1875 73.3125 C-81.77844493 76.02327366 -82.40007106 78.72767796 -83.0625 81.421875 C-83.23249512 82.11839172 -83.40249023 82.81490845 -83.57763672 83.53253174 C-84.11015456 85.7102192 -84.6486929 87.88636121 -85.1875 90.0625 C-85.5472751 91.52984988 -85.90665213 92.99729741 -86.265625 94.46484375 C-87.88758936 101.0854446 -89.53427881 107.69961523 -91.1875 114.3125 C-69.7375 114.3125 -48.2875 114.3125 -26.1875 114.3125 C-26.80877262 120.52522622 -27.38534077 125.87330414 -28.75390625 131.828125 C-28.9082312 132.50935928 -29.06255615 133.19059357 -29.22155762 133.89247131 C-29.55326549 135.35495748 -29.88752362 136.81686724 -30.22415161 138.27822876 C-31.14181357 142.26452761 -32.03904263 146.25543025 -32.9375 150.24609375 C-33.21763695 151.48778572 -33.21763695 151.48778572 -33.50343323 152.75456238 C-35.51209231 161.6919626 -37.3832094 170.65711125 -39.25 179.625 C-41.89314883 192.29642965 -44.64550932 204.93461661 -47.52783203 217.55419922 C-49.96966196 228.269952 -52.30911847 239.00640988 -54.625 249.75 C-54.80466309 250.58346954 -54.98432617 251.41693909 -55.16943359 252.27566528 C-56.17742842 256.95418966 -57.18275822 261.63327399 -58.1875 266.3125 C-48.9475 266.3125 -39.7075 266.3125 -30.1875 266.3125 C-32.21515646 276.91132255 -34.62582656 287.31796792 -37.375 297.75 C-37.74713496 299.17502838 -38.11888135 300.60015828 -38.49023438 302.02539062 C-39.384874 305.45560205 -40.28466801 308.88443441 -41.1875 312.3125 C-45.16708885 311.81715668 -48.79549454 311.30297511 -52.5 309.74609375 C-53.25772705 309.42979004 -54.0154541 309.11348633 -54.79614258 308.78759766 C-55.58529053 308.44519043 -56.37443848 308.1027832 -57.1875 307.75 C-58.01983154 307.39212402 -58.85216309 307.03424805 -59.7097168 306.66552734 C-99.32818447 289.35968946 -130.80126615 258.49613491 -146.80786133 218.00317383 C-148.01575537 214.79684234 -149.11201098 211.56610873 -150.1875 208.3125 C-150.56519531 207.18972656 -150.94289063 206.06695312 -151.33203125 204.91015625 C-156.18505561 189.33322039 -157.47182952 173.79091304 -157.5625 157.5625 C-157.57035522 156.8757016 -157.57821045 156.1889032 -157.58630371 155.48129272 C-157.67875283 145.09674337 -156.42318488 135.44502231 -154.1875 125.3125 C-153.99414062 124.40564453 -153.80078125 123.49878906 -153.6015625 122.56445312 C-148.66567641 100.35296573 -138.32641035 79.14094353 -124.1875 61.3125 C-123.37796875 60.28769531 -122.5684375 59.26289063 -121.734375 58.20703125 C-100.46332538 31.89143264 -71.29504612 13.45822382 -38.6875 4.625 C-37.94032715 4.42213379 -37.1931543 4.21926758 -36.42333984 4.01025391 C-24.3388068 0.89477123 -12.42654348 -0.06334354 0 0 Z " fill="#1B2674" transform="translate(598.1875,140.6875)"/>
<path d="M0 0 C7.26 0 14.52 0 22 0 C37.46025462 26.63920796 47.45671165 53.60046475 47.375 84.8125 C47.37518127 85.88425476 47.37518127 85.88425476 47.37536621 86.97766113 C47.28931983 122.96305975 35.83040479 157.94599859 13 186 C12.54222168 186.56460938 12.08444336 187.12921875 11.61279297 187.7109375 C-14.70978524 219.95631582 -51.99711914 240.50909859 -93.36132812 245.65869141 C-100.23470081 246.30341598 -107.10009958 246.41430508 -114 246.4375 C-114.67961792 246.44358276 -115.35923584 246.44966553 -116.05944824 246.45593262 C-126.43535895 246.51682338 -135.88517711 245.18054014 -146 243 C-147.6661728 242.66420675 -149.33262442 242.32976895 -151 242 C-151.26835937 236.18960571 -150.29573175 231.21441502 -148.84765625 225.6015625 C-148.62806747 224.72599701 -148.4084787 223.85043152 -148.18223572 222.94833374 C-147.71953735 221.11024281 -147.2528808 219.27314417 -146.7824707 217.43701172 C-146.05998993 214.61519633 -145.35031204 211.79038996 -144.64257812 208.96484375 C-144.1908449 207.17689602 -143.73839644 205.38912881 -143.28515625 203.6015625 C-143.07157974 202.75373199 -142.85800323 201.90590149 -142.63795471 201.03237915 C-141.11646473 195.11646473 -141.11646473 195.11646473 -140 194 C-137.55169574 193.91156207 -135.13179401 193.88471248 -132.68359375 193.90234375 C-131.95253922 193.9037587 -131.22148468 193.90517365 -130.46827698 193.90663147 C-128.12464368 193.91224592 -125.78110461 193.92480078 -123.4375 193.9375 C-121.85221492 193.94251314 -120.26692834 193.94707637 -118.68164062 193.95117188 C-114.7877239 193.96222003 -110.89387795 193.97949428 -107 194 C-106.9589917 193.34370605 -106.9179834 192.68741211 -106.87573242 192.01123047 C-106.33752322 184.83805924 -105.02700564 178.10072193 -103.3125 171.125 C-101.06882303 161.71618497 -98.98548866 152.29202155 -97.0625 142.8125 C-95.05816107 132.9701616 -92.93216904 123.16526453 -90.6875 113.375 C-87.2897897 98.54862779 -84.17562561 83.66695704 -81.1081543 68.76904297 C-80.92413559 67.87971573 -80.74011688 66.99038849 -80.55052185 66.07411194 C-80.20929332 64.42452435 -79.87002767 62.77452866 -79.53334045 61.12400818 C-78.20023529 54.687331 -76.59882795 48.3953118 -75 42 C-53.22 41.67 -31.44 41.34 -9 41 C-6.69 30.44 -4.38 19.88 -2 9 C-1.34 6.03 -0.68 3.06 0 0 Z " fill="#F4901D" transform="translate(712,213)"/>
</svg>
